<svg width="63" height="62" viewBox="0 0 63 62" fill="none" xmlns="http://www.w3.org/2000/svg">
<g id="Ellipse 3">
<path id="Ellipse 1" d="M6.75555 43.2147C4.90585 44.1378 4.15029 46.4104 5.31333 48.1194C7.46813 51.2858 10.2055 54.0419 13.3952 56.2398C17.6261 59.1552 22.5222 60.9985 27.6497 61.6063C32.7772 62.2142 37.9778 61.5679 42.791 59.7247C47.6041 57.8815 51.8812 54.8982 55.2433 51.0392C58.6055 47.1802 60.9489 42.5645 62.066 37.601C63.1832 32.6375 63.0395 27.4795 61.6478 22.5837C60.2561 17.6879 57.6594 13.2055 54.0875 9.53358C51.3673 6.73721 48.1456 4.47661 44.5959 2.85931C42.7437 2.01544 40.6532 3.08893 40.0113 5.02037L36.4832 15.635C35.8327 17.592 36.9533 19.6648 38.6454 20.8437C39.2955 21.2966 39.9025 21.811 40.4572 22.3813C41.8827 23.8467 42.9191 25.6356 43.4745 27.5895C44.0299 29.5433 44.0872 31.6019 43.6414 33.5828C43.1956 35.5637 42.2603 37.4057 40.9185 38.9458C39.5767 40.4859 37.8698 41.6765 35.9489 42.4121C34.028 43.1477 31.9525 43.4057 29.9062 43.1631C27.8598 42.9205 25.9058 42.1848 24.2173 41.0213C23.545 40.558 22.923 40.0326 22.359 39.4538C20.9421 37.9994 18.7652 37.2216 16.9484 38.1282L6.75555 43.2147Z" fill="#F6BC46"/>
</g>
</svg>
