<svg width="40" height="40" viewBox="0 0 40 40" fill="none" xmlns="http://www.w3.org/2000/svg">
<g id="TwitterLogo">
<path id="Vector" d="M19.9999 13.7496C19.9999 10.3121 22.8905 7.45272 26.328 7.49959C27.5318 7.51349 28.706 7.87478 29.7094 8.54002C30.7128 9.20527 31.5028 10.1462 31.9842 11.2496H37.4999L32.453 16.2965C32.1273 21.3661 29.8831 26.1214 26.1767 29.5956C22.4703 33.0698 17.58 35.0021 12.4999 34.9996C7.49987 34.9996 6.24987 33.1246 6.24987 33.1246C6.24987 33.1246 11.2499 31.2496 13.7499 27.4996C13.7499 27.4996 3.74987 22.4996 6.24987 8.74959C6.24987 8.74959 12.4999 14.9996 19.9999 16.2496V13.7496Z" stroke="white" stroke-width="2" stroke-linecap="round" stroke-linejoin="round"/>
</g>
</svg>
